<mxfile host="app.diagrams.net" modified="2020-11-26T05:46:29.852Z" agent="5.0 (Windows NT 10.0; Win64; x64) AppleWebKit/537.36 (KHTML, like Gecko) Chrome/87.0.4280.66 Safari/537.36" etag="2rG_8XMk5z8NXC_4zu5x" version="13.10.2" type="github">
  <diagram id="XsG1NGjMLy8Txl2xfddT" name="Page-1">
    <mxGraphModel dx="1902" dy="997" grid="0" gridSize="10" guides="1" tooltips="1" connect="1" arrows="1" fold="1" page="0" pageScale="1" pageWidth="1100" pageHeight="850" background="#ffffff" math="0" shadow="0">
      <root>
        <mxCell id="0" />
        <mxCell id="1" parent="0" />
        <mxCell id="rkTGoCr_PCal79WlTi9f-8" style="edgeStyle=orthogonalEdgeStyle;rounded=0;orthogonalLoop=1;jettySize=auto;html=1;" parent="1" source="rkTGoCr_PCal79WlTi9f-4" target="rkTGoCr_PCal79WlTi9f-5" edge="1">
          <mxGeometry relative="1" as="geometry" />
        </mxCell>
        <mxCell id="rkTGoCr_PCal79WlTi9f-4" value="&lt;font style=&quot;font-size: 18px&quot;&gt;IntroActivity&lt;/font&gt;" style="rounded=0;whiteSpace=wrap;html=1;" parent="1" vertex="1">
          <mxGeometry x="50" y="150" width="120" height="60" as="geometry" />
        </mxCell>
        <mxCell id="rkTGoCr_PCal79WlTi9f-24" value="" style="edgeStyle=orthogonalEdgeStyle;rounded=0;orthogonalLoop=1;jettySize=auto;html=1;" parent="1" source="rkTGoCr_PCal79WlTi9f-5" target="rkTGoCr_PCal79WlTi9f-16" edge="1">
          <mxGeometry relative="1" as="geometry" />
        </mxCell>
        <mxCell id="rkTGoCr_PCal79WlTi9f-5" value="&lt;font style=&quot;font-size: 18px&quot;&gt;AuthFirstActivity&lt;/font&gt;" style="rounded=0;whiteSpace=wrap;html=1;" parent="1" vertex="1">
          <mxGeometry x="290" y="150" width="140" height="60" as="geometry" />
        </mxCell>
        <mxCell id="rkTGoCr_PCal79WlTi9f-6" value="&lt;font style=&quot;font-size: 18px&quot;&gt;MainActivity&lt;/font&gt;" style="rounded=0;whiteSpace=wrap;html=1;" parent="1" vertex="1">
          <mxGeometry x="290" y="250" width="120" height="60" as="geometry" />
        </mxCell>
        <mxCell id="rkTGoCr_PCal79WlTi9f-11" value="&lt;h1&gt;로그인 플로우&lt;/h1&gt;" style="text;html=1;strokeColor=none;fillColor=none;spacing=5;spacingTop=-20;whiteSpace=wrap;overflow=hidden;rounded=0;" parent="1" vertex="1">
          <mxGeometry x="40" y="30" width="160" height="40" as="geometry" />
        </mxCell>
        <mxCell id="rkTGoCr_PCal79WlTi9f-12" value="&lt;h1&gt;결제 플로우&lt;/h1&gt;" style="text;html=1;strokeColor=none;fillColor=none;spacing=5;spacingTop=-20;whiteSpace=wrap;overflow=hidden;rounded=0;" parent="1" vertex="1">
          <mxGeometry x="40" y="470" width="160" height="40" as="geometry" />
        </mxCell>
        <mxCell id="rkTGoCr_PCal79WlTi9f-13" value="&lt;span style=&quot;font-size: 18px&quot;&gt;first login&lt;/span&gt;" style="text;html=1;strokeColor=none;fillColor=none;align=center;verticalAlign=middle;whiteSpace=wrap;rounded=0;" parent="1" vertex="1">
          <mxGeometry x="160" y="100" width="140" height="40" as="geometry" />
        </mxCell>
        <mxCell id="rkTGoCr_PCal79WlTi9f-14" value="" style="endArrow=classic;html=1;entryX=0;entryY=0.5;entryDx=0;entryDy=0;" parent="1" target="rkTGoCr_PCal79WlTi9f-6" edge="1">
          <mxGeometry width="50" height="50" relative="1" as="geometry">
            <mxPoint x="250" y="180" as="sourcePoint" />
            <mxPoint x="230" y="280" as="targetPoint" />
            <Array as="points">
              <mxPoint x="250" y="280" />
            </Array>
          </mxGeometry>
        </mxCell>
        <mxCell id="rkTGoCr_PCal79WlTi9f-15" value="&lt;span style=&quot;font-size: 18px&quot;&gt;already login&lt;br&gt;→ 앱 메인화면 진입&lt;br&gt;&lt;/span&gt;" style="text;html=1;strokeColor=none;fillColor=none;align=center;verticalAlign=middle;whiteSpace=wrap;rounded=0;" parent="1" vertex="1">
          <mxGeometry x="160" y="330" width="180" height="40" as="geometry" />
        </mxCell>
        <mxCell id="rkTGoCr_PCal79WlTi9f-25" value="" style="edgeStyle=orthogonalEdgeStyle;rounded=0;orthogonalLoop=1;jettySize=auto;html=1;" parent="1" source="rkTGoCr_PCal79WlTi9f-16" target="rkTGoCr_PCal79WlTi9f-20" edge="1">
          <mxGeometry relative="1" as="geometry" />
        </mxCell>
        <mxCell id="rkTGoCr_PCal79WlTi9f-16" value="&lt;font style=&quot;font-size: 18px&quot;&gt;AuthSecondActivity&lt;/font&gt;" style="rounded=0;whiteSpace=wrap;html=1;" parent="1" vertex="1">
          <mxGeometry x="515" y="150" width="170" height="60" as="geometry" />
        </mxCell>
        <mxCell id="rkTGoCr_PCal79WlTi9f-17" value="&lt;font style=&quot;font-size: 18px&quot;&gt;가맹점 아이디 입력&lt;/font&gt;" style="text;html=1;strokeColor=none;fillColor=none;align=center;verticalAlign=middle;whiteSpace=wrap;rounded=0;" parent="1" vertex="1">
          <mxGeometry x="278.75" y="100" width="162.5" height="40" as="geometry" />
        </mxCell>
        <mxCell id="rkTGoCr_PCal79WlTi9f-18" value="&lt;font style=&quot;font-size: 18px&quot;&gt;터미널 아이디 / &lt;br&gt;일련번호(시리얼 번호) 입력&lt;/font&gt;" style="text;html=1;strokeColor=none;fillColor=none;align=center;verticalAlign=middle;whiteSpace=wrap;rounded=0;" parent="1" vertex="1">
          <mxGeometry x="485" y="90" width="230" height="40" as="geometry" />
        </mxCell>
        <mxCell id="rkTGoCr_PCal79WlTi9f-26" value="" style="edgeStyle=orthogonalEdgeStyle;rounded=0;orthogonalLoop=1;jettySize=auto;html=1;" parent="1" source="rkTGoCr_PCal79WlTi9f-20" target="rkTGoCr_PCal79WlTi9f-22" edge="1">
          <mxGeometry relative="1" as="geometry" />
        </mxCell>
        <mxCell id="rkTGoCr_PCal79WlTi9f-20" value="&lt;font style=&quot;font-size: 18px&quot;&gt;LoginCompleteActivity&lt;/font&gt;" style="rounded=0;whiteSpace=wrap;html=1;" parent="1" vertex="1">
          <mxGeometry x="790" y="150" width="190" height="60" as="geometry" />
        </mxCell>
        <mxCell id="rkTGoCr_PCal79WlTi9f-21" value="&lt;font style=&quot;font-size: 18px&quot;&gt;인증완료&lt;/font&gt;" style="text;html=1;strokeColor=none;fillColor=none;align=center;verticalAlign=middle;whiteSpace=wrap;rounded=0;" parent="1" vertex="1">
          <mxGeometry x="810" y="100" width="140" height="40" as="geometry" />
        </mxCell>
        <mxCell id="rkTGoCr_PCal79WlTi9f-22" value="&lt;font style=&quot;font-size: 18px&quot;&gt;MainActivity&lt;/font&gt;" style="rounded=0;whiteSpace=wrap;html=1;" parent="1" vertex="1">
          <mxGeometry x="1080" y="150" width="120" height="60" as="geometry" />
        </mxCell>
        <mxCell id="mfMiC9CGdWcLCocoqDuJ-2" value="" style="edgeStyle=orthogonalEdgeStyle;rounded=0;orthogonalLoop=1;jettySize=auto;html=1;" parent="1" source="rkTGoCr_PCal79WlTi9f-23" target="Q_B2u1Nn1Y0NjtZ0O8QM-1" edge="1">
          <mxGeometry relative="1" as="geometry" />
        </mxCell>
        <mxCell id="rkTGoCr_PCal79WlTi9f-23" value="&lt;font style=&quot;font-size: 18px&quot;&gt;MainActivity&lt;/font&gt;" style="rounded=0;whiteSpace=wrap;html=1;" parent="1" vertex="1">
          <mxGeometry x="50" y="590" width="120" height="60" as="geometry" />
        </mxCell>
        <mxCell id="rkTGoCr_PCal79WlTi9f-30" value="&lt;span style=&quot;font-size: 18px&quot;&gt;key 토큰 값 유무&lt;/span&gt;" style="text;html=1;strokeColor=none;fillColor=none;align=center;verticalAlign=middle;whiteSpace=wrap;rounded=0;" parent="1" vertex="1">
          <mxGeometry x="40" y="220" width="140" height="40" as="geometry" />
        </mxCell>
        <mxCell id="mfMiC9CGdWcLCocoqDuJ-3" value="" style="edgeStyle=orthogonalEdgeStyle;rounded=0;orthogonalLoop=1;jettySize=auto;html=1;" parent="1" source="Q_B2u1Nn1Y0NjtZ0O8QM-1" target="Q_B2u1Nn1Y0NjtZ0O8QM-3" edge="1">
          <mxGeometry relative="1" as="geometry" />
        </mxCell>
        <mxCell id="Q_B2u1Nn1Y0NjtZ0O8QM-1" value="&lt;font style=&quot;font-size: 18px&quot;&gt;onClickMenu /&lt;br&gt;onClickMain&lt;br&gt;&lt;/font&gt;" style="rounded=0;whiteSpace=wrap;html=1;" parent="1" vertex="1">
          <mxGeometry x="205" y="590" width="120" height="60" as="geometry" />
        </mxCell>
        <mxCell id="mfMiC9CGdWcLCocoqDuJ-4" value="" style="edgeStyle=orthogonalEdgeStyle;rounded=0;orthogonalLoop=1;jettySize=auto;html=1;" parent="1" source="Q_B2u1Nn1Y0NjtZ0O8QM-3" target="Q_B2u1Nn1Y0NjtZ0O8QM-9" edge="1">
          <mxGeometry relative="1" as="geometry" />
        </mxCell>
        <mxCell id="Q_B2u1Nn1Y0NjtZ0O8QM-3" value="&lt;font style=&quot;font-size: 18px&quot;&gt;CreditPaymentActivity&lt;br&gt;&lt;/font&gt;" style="rounded=0;whiteSpace=wrap;html=1;" parent="1" vertex="1">
          <mxGeometry x="360" y="590" width="190" height="60" as="geometry" />
        </mxCell>
        <mxCell id="mfMiC9CGdWcLCocoqDuJ-18" value="" style="edgeStyle=orthogonalEdgeStyle;rounded=0;orthogonalLoop=1;jettySize=auto;html=1;" parent="1" source="Q_B2u1Nn1Y0NjtZ0O8QM-4" target="0Azxwh3zIwe1iMM0iR9Q-50" edge="1">
          <mxGeometry relative="1" as="geometry" />
        </mxCell>
        <mxCell id="Q_B2u1Nn1Y0NjtZ0O8QM-4" value="&lt;font style=&quot;font-size: 18px&quot;&gt;DirectPaymentActivity&lt;br&gt;&lt;/font&gt;" style="rounded=0;whiteSpace=wrap;html=1;" parent="1" vertex="1">
          <mxGeometry x="360" y="890" width="190" height="60" as="geometry" />
        </mxCell>
        <mxCell id="Q_B2u1Nn1Y0NjtZ0O8QM-6" value="&lt;span style=&quot;font-size: 18px&quot;&gt;appDirect&amp;nbsp; 여부&lt;/span&gt;" style="text;html=1;strokeColor=none;fillColor=none;align=center;verticalAlign=middle;whiteSpace=wrap;rounded=0;" parent="1" vertex="1">
          <mxGeometry x="195" y="540" width="140" height="40" as="geometry" />
        </mxCell>
        <mxCell id="Q_B2u1Nn1Y0NjtZ0O8QM-7" value="&lt;span style=&quot;font-size: 18px&quot;&gt;신용카드 결제&lt;/span&gt;" style="text;html=1;strokeColor=none;fillColor=none;align=center;verticalAlign=middle;whiteSpace=wrap;rounded=0;" parent="1" vertex="1">
          <mxGeometry x="380" y="540" width="140" height="40" as="geometry" />
        </mxCell>
        <mxCell id="Q_B2u1Nn1Y0NjtZ0O8QM-8" value="&lt;span style=&quot;font-size: 18px&quot;&gt;수기 결제&lt;/span&gt;" style="text;html=1;strokeColor=none;fillColor=none;align=center;verticalAlign=middle;whiteSpace=wrap;rounded=0;" parent="1" vertex="1">
          <mxGeometry x="380" y="840" width="140" height="40" as="geometry" />
        </mxCell>
        <mxCell id="mfMiC9CGdWcLCocoqDuJ-5" value="" style="edgeStyle=orthogonalEdgeStyle;rounded=0;orthogonalLoop=1;jettySize=auto;html=1;" parent="1" source="Q_B2u1Nn1Y0NjtZ0O8QM-9" target="Q_B2u1Nn1Y0NjtZ0O8QM-11" edge="1">
          <mxGeometry relative="1" as="geometry" />
        </mxCell>
        <mxCell id="Q_B2u1Nn1Y0NjtZ0O8QM-9" value="&lt;font style=&quot;font-size: 18px&quot;&gt;payStart()&lt;/font&gt;" style="rounded=0;whiteSpace=wrap;html=1;" parent="1" vertex="1">
          <mxGeometry x="585" y="590" width="120" height="60" as="geometry" />
        </mxCell>
        <mxCell id="Q_B2u1Nn1Y0NjtZ0O8QM-10" value="&lt;span style=&quot;font-size: 18px&quot;&gt;amount, installment 전송&lt;/span&gt;" style="text;html=1;strokeColor=none;fillColor=none;align=center;verticalAlign=middle;whiteSpace=wrap;rounded=0;" parent="1" vertex="1">
          <mxGeometry x="575" y="530" width="140" height="40" as="geometry" />
        </mxCell>
        <mxCell id="0Azxwh3zIwe1iMM0iR9Q-41" value="" style="edgeStyle=orthogonalEdgeStyle;rounded=0;orthogonalLoop=1;jettySize=auto;html=1;" parent="1" source="Q_B2u1Nn1Y0NjtZ0O8QM-11" target="Q_B2u1Nn1Y0NjtZ0O8QM-12" edge="1">
          <mxGeometry relative="1" as="geometry" />
        </mxCell>
        <mxCell id="Q_B2u1Nn1Y0NjtZ0O8QM-11" value="&lt;font style=&quot;font-size: 18px&quot;&gt;sendCheckApprove()&lt;br&gt;getCheckApprove()&lt;br&gt;&lt;/font&gt;" style="rounded=0;whiteSpace=wrap;html=1;" parent="1" vertex="1">
          <mxGeometry x="740" y="590" width="190" height="60" as="geometry" />
        </mxCell>
        <mxCell id="0Azxwh3zIwe1iMM0iR9Q-39" value="" style="edgeStyle=orthogonalEdgeStyle;rounded=0;orthogonalLoop=1;jettySize=auto;html=1;" parent="1" source="Q_B2u1Nn1Y0NjtZ0O8QM-12" target="Q_B2u1Nn1Y0NjtZ0O8QM-15" edge="1">
          <mxGeometry relative="1" as="geometry" />
        </mxCell>
        <mxCell id="Q_B2u1Nn1Y0NjtZ0O8QM-12" value="&lt;font style=&quot;font-size: 18px&quot;&gt;SchipQ2&lt;/font&gt;" style="rounded=0;whiteSpace=wrap;html=1;" parent="1" vertex="1">
          <mxGeometry x="960" y="590" width="120" height="60" as="geometry" />
        </mxCell>
        <mxCell id="0Azxwh3zIwe1iMM0iR9Q-40" value="" style="edgeStyle=orthogonalEdgeStyle;rounded=0;orthogonalLoop=1;jettySize=auto;html=1;entryX=1;entryY=0.5;entryDx=0;entryDy=0;" parent="1" source="Q_B2u1Nn1Y0NjtZ0O8QM-15" target="Q_B2u1Nn1Y0NjtZ0O8QM-17" edge="1">
          <mxGeometry relative="1" as="geometry" />
        </mxCell>
        <mxCell id="Q_B2u1Nn1Y0NjtZ0O8QM-15" value="&lt;font style=&quot;font-size: 18px&quot;&gt;MainActivity&lt;/font&gt;" style="rounded=0;whiteSpace=wrap;html=1;" parent="1" vertex="1">
          <mxGeometry x="1180" y="700" width="120" height="60" as="geometry" />
        </mxCell>
        <mxCell id="mfMiC9CGdWcLCocoqDuJ-7" value="" style="edgeStyle=orthogonalEdgeStyle;rounded=0;orthogonalLoop=1;jettySize=auto;html=1;" parent="1" source="Q_B2u1Nn1Y0NjtZ0O8QM-17" target="0Azxwh3zIwe1iMM0iR9Q-7" edge="1">
          <mxGeometry relative="1" as="geometry" />
        </mxCell>
        <mxCell id="Q_B2u1Nn1Y0NjtZ0O8QM-17" value="&lt;font style=&quot;font-size: 18px&quot;&gt;onNewIntent()&lt;br&gt;&lt;/font&gt;" style="rounded=0;whiteSpace=wrap;html=1;" parent="1" vertex="1">
          <mxGeometry x="990" y="700" width="150" height="60" as="geometry" />
        </mxCell>
        <mxCell id="Q_B2u1Nn1Y0NjtZ0O8QM-18" value="&lt;span style=&quot;font-size: 18px&quot;&gt;타사 앱 호출&lt;br&gt;&lt;/span&gt;&lt;span style=&quot;font-size: 18px&quot;&gt;카드인식&lt;/span&gt;&lt;span style=&quot;font-size: 18px&quot;&gt;&lt;br&gt;결제승인&lt;br&gt;&lt;/span&gt;" style="text;html=1;strokeColor=none;fillColor=none;align=center;verticalAlign=middle;whiteSpace=wrap;rounded=0;" parent="1" vertex="1">
          <mxGeometry x="950" y="520" width="140" height="40" as="geometry" />
        </mxCell>
        <mxCell id="Q_B2u1Nn1Y0NjtZ0O8QM-19" value="&lt;span style=&quot;font-size: 18px&quot;&gt;응답&lt;/span&gt;" style="text;html=1;strokeColor=none;fillColor=none;align=center;verticalAlign=middle;whiteSpace=wrap;rounded=0;" parent="1" vertex="1">
          <mxGeometry x="1170" y="770" width="140" height="40" as="geometry" />
        </mxCell>
        <mxCell id="Q_B2u1Nn1Y0NjtZ0O8QM-20" value="&lt;span style=&quot;font-size: 18px&quot;&gt;결제 요청&lt;/span&gt;" style="text;html=1;strokeColor=none;fillColor=none;align=center;verticalAlign=middle;whiteSpace=wrap;rounded=0;" parent="1" vertex="1">
          <mxGeometry x="765" y="540" width="140" height="40" as="geometry" />
        </mxCell>
        <mxCell id="mfMiC9CGdWcLCocoqDuJ-32" value="" style="edgeStyle=orthogonalEdgeStyle;rounded=0;orthogonalLoop=1;jettySize=auto;html=1;" parent="1" source="0Azxwh3zIwe1iMM0iR9Q-1" target="0Azxwh3zIwe1iMM0iR9Q-2" edge="1">
          <mxGeometry relative="1" as="geometry" />
        </mxCell>
        <mxCell id="0Azxwh3zIwe1iMM0iR9Q-1" value="&lt;font style=&quot;font-size: 18px&quot;&gt;PaymentCompleteActivity&lt;br&gt;&lt;/font&gt;" style="rounded=0;whiteSpace=wrap;html=1;" parent="1" vertex="1">
          <mxGeometry x="40" y="1720" width="215" height="60" as="geometry" />
        </mxCell>
        <mxCell id="mfMiC9CGdWcLCocoqDuJ-33" value="" style="edgeStyle=orthogonalEdgeStyle;rounded=0;orthogonalLoop=1;jettySize=auto;html=1;" parent="1" source="0Azxwh3zIwe1iMM0iR9Q-2" target="0Azxwh3zIwe1iMM0iR9Q-4" edge="1">
          <mxGeometry relative="1" as="geometry" />
        </mxCell>
        <mxCell id="0Azxwh3zIwe1iMM0iR9Q-2" value="&lt;font style=&quot;font-size: 18px&quot;&gt;sendCheckApproveRefund()&lt;/font&gt;" style="rounded=0;whiteSpace=wrap;html=1;" parent="1" vertex="1">
          <mxGeometry x="310" y="1720" width="240" height="60" as="geometry" />
        </mxCell>
        <mxCell id="0Azxwh3zIwe1iMM0iR9Q-3" value="&lt;h1&gt;결제 취소 플로우&lt;/h1&gt;" style="text;html=1;strokeColor=none;fillColor=none;spacing=5;spacingTop=-20;whiteSpace=wrap;overflow=hidden;rounded=0;" parent="1" vertex="1">
          <mxGeometry x="40" y="1570" width="200" height="40" as="geometry" />
        </mxCell>
        <mxCell id="mfMiC9CGdWcLCocoqDuJ-34" value="" style="edgeStyle=orthogonalEdgeStyle;rounded=0;orthogonalLoop=1;jettySize=auto;html=1;" parent="1" source="0Azxwh3zIwe1iMM0iR9Q-4" target="mfMiC9CGdWcLCocoqDuJ-29" edge="1">
          <mxGeometry relative="1" as="geometry" />
        </mxCell>
        <mxCell id="0Azxwh3zIwe1iMM0iR9Q-4" value="&lt;font style=&quot;font-size: 18px&quot;&gt;SchipQ2&lt;/font&gt;" style="rounded=0;whiteSpace=wrap;html=1;" parent="1" vertex="1">
          <mxGeometry x="605" y="1720" width="120" height="60" as="geometry" />
        </mxCell>
        <mxCell id="0Azxwh3zIwe1iMM0iR9Q-5" value="&lt;span style=&quot;font-size: 18px&quot;&gt;타사 앱 호출&lt;br&gt;카드인식&lt;br&gt;취소승인&lt;br&gt;&lt;/span&gt;" style="text;html=1;strokeColor=none;fillColor=none;align=center;verticalAlign=middle;whiteSpace=wrap;rounded=0;" parent="1" vertex="1">
          <mxGeometry x="595" y="1650" width="140" height="40" as="geometry" />
        </mxCell>
        <mxCell id="0Azxwh3zIwe1iMM0iR9Q-6" value="&lt;font style=&quot;font-size: 18px&quot;&gt;PaymentCompleteActivity&lt;br&gt;&lt;/font&gt;" style="rounded=0;whiteSpace=wrap;html=1;" parent="1" vertex="1">
          <mxGeometry x="500" y="700" width="215" height="60" as="geometry" />
        </mxCell>
        <mxCell id="mfMiC9CGdWcLCocoqDuJ-8" value="" style="edgeStyle=orthogonalEdgeStyle;rounded=0;orthogonalLoop=1;jettySize=auto;html=1;" parent="1" source="0Azxwh3zIwe1iMM0iR9Q-7" target="0Azxwh3zIwe1iMM0iR9Q-6" edge="1">
          <mxGeometry relative="1" as="geometry" />
        </mxCell>
        <mxCell id="0Azxwh3zIwe1iMM0iR9Q-7" value="&lt;font style=&quot;font-size: 18px&quot;&gt;sendApproveComplete()&lt;br&gt;&lt;/font&gt;" style="rounded=0;whiteSpace=wrap;html=1;" parent="1" vertex="1">
          <mxGeometry x="750" y="700" width="210" height="60" as="geometry" />
        </mxCell>
        <mxCell id="0Azxwh3zIwe1iMM0iR9Q-32" value="" style="edgeStyle=orthogonalEdgeStyle;rounded=0;orthogonalLoop=1;jettySize=auto;html=1;" parent="1" source="0Azxwh3zIwe1iMM0iR9Q-13" target="0Azxwh3zIwe1iMM0iR9Q-15" edge="1">
          <mxGeometry relative="1" as="geometry">
            <Array as="points">
              <mxPoint x="190" y="1170" />
              <mxPoint x="190" y="1170" />
            </Array>
          </mxGeometry>
        </mxCell>
        <mxCell id="0Azxwh3zIwe1iMM0iR9Q-13" value="&lt;font style=&quot;font-size: 18px&quot;&gt;MainActivity&lt;/font&gt;" style="rounded=0;whiteSpace=wrap;html=1;" parent="1" vertex="1">
          <mxGeometry x="50" y="1140" width="120" height="60" as="geometry" />
        </mxCell>
        <mxCell id="0Azxwh3zIwe1iMM0iR9Q-33" value="" style="edgeStyle=orthogonalEdgeStyle;rounded=0;orthogonalLoop=1;jettySize=auto;html=1;" parent="1" source="0Azxwh3zIwe1iMM0iR9Q-15" target="0Azxwh3zIwe1iMM0iR9Q-21" edge="1">
          <mxGeometry relative="1" as="geometry" />
        </mxCell>
        <mxCell id="0Azxwh3zIwe1iMM0iR9Q-15" value="&lt;font style=&quot;font-size: 18px&quot;&gt;CreditPaymentActivity&lt;br&gt;&lt;/font&gt;" style="rounded=0;whiteSpace=wrap;html=1;" parent="1" vertex="1">
          <mxGeometry x="315" y="1140" width="190" height="60" as="geometry" />
        </mxCell>
        <mxCell id="0Azxwh3zIwe1iMM0iR9Q-17" value="&lt;span style=&quot;font-size: 18px&quot;&gt;금액, 할부기간 입력 /승인 요청&lt;/span&gt;" style="text;html=1;strokeColor=none;fillColor=none;align=center;verticalAlign=middle;whiteSpace=wrap;rounded=0;" parent="1" vertex="1">
          <mxGeometry x="310" y="1090" width="180" height="40" as="geometry" />
        </mxCell>
        <mxCell id="0Azxwh3zIwe1iMM0iR9Q-34" value="" style="edgeStyle=orthogonalEdgeStyle;rounded=0;orthogonalLoop=1;jettySize=auto;html=1;" parent="1" source="0Azxwh3zIwe1iMM0iR9Q-21" target="0Azxwh3zIwe1iMM0iR9Q-23" edge="1">
          <mxGeometry relative="1" as="geometry" />
        </mxCell>
        <mxCell id="0Azxwh3zIwe1iMM0iR9Q-21" value="&lt;font style=&quot;font-size: 18px&quot;&gt;SchipQ2&lt;/font&gt;" style="rounded=0;whiteSpace=wrap;html=1;" parent="1" vertex="1">
          <mxGeometry x="585" y="1140" width="120" height="60" as="geometry" />
        </mxCell>
        <mxCell id="0Azxwh3zIwe1iMM0iR9Q-35" value="" style="edgeStyle=orthogonalEdgeStyle;rounded=0;orthogonalLoop=1;jettySize=auto;html=1;" parent="1" source="0Azxwh3zIwe1iMM0iR9Q-23" target="0Azxwh3zIwe1iMM0iR9Q-28" edge="1">
          <mxGeometry relative="1" as="geometry" />
        </mxCell>
        <mxCell id="0Azxwh3zIwe1iMM0iR9Q-23" value="&lt;font style=&quot;font-size: 18px&quot;&gt;MainActivity&lt;/font&gt;" style="rounded=0;whiteSpace=wrap;html=1;" parent="1" vertex="1">
          <mxGeometry x="800" y="1140" width="120" height="60" as="geometry" />
        </mxCell>
        <mxCell id="0Azxwh3zIwe1iMM0iR9Q-26" value="&lt;span style=&quot;font-size: 18px&quot;&gt;응답&lt;/span&gt;" style="text;html=1;strokeColor=none;fillColor=none;align=center;verticalAlign=middle;whiteSpace=wrap;rounded=0;" parent="1" vertex="1">
          <mxGeometry x="785" y="1090" width="140" height="40" as="geometry" />
        </mxCell>
        <mxCell id="0Azxwh3zIwe1iMM0iR9Q-28" value="&lt;font style=&quot;font-size: 18px&quot;&gt;PaymentCompleteActivity&lt;br&gt;&lt;/font&gt;" style="rounded=0;whiteSpace=wrap;html=1;" parent="1" vertex="1">
          <mxGeometry x="1010" y="1140" width="215" height="60" as="geometry" />
        </mxCell>
        <mxCell id="0Azxwh3zIwe1iMM0iR9Q-30" value="&lt;span style=&quot;font-size: 18px&quot;&gt;결제 완료&lt;/span&gt;" style="text;html=1;strokeColor=none;fillColor=none;align=center;verticalAlign=middle;whiteSpace=wrap;rounded=0;" parent="1" vertex="1">
          <mxGeometry x="1040" y="1090" width="140" height="40" as="geometry" />
        </mxCell>
        <mxCell id="0Azxwh3zIwe1iMM0iR9Q-36" value="&lt;span style=&quot;font-size: 18px&quot;&gt;결제 타입 / &lt;br&gt;신용카드 결제&lt;/span&gt;" style="text;html=1;strokeColor=none;fillColor=none;align=center;verticalAlign=middle;whiteSpace=wrap;rounded=0;" parent="1" vertex="1">
          <mxGeometry x="330" y="1030" width="140" height="40" as="geometry" />
        </mxCell>
        <mxCell id="0Azxwh3zIwe1iMM0iR9Q-38" style="edgeStyle=orthogonalEdgeStyle;rounded=0;orthogonalLoop=1;jettySize=auto;html=1;exitX=0.5;exitY=1;exitDx=0;exitDy=0;" parent="1" source="0Azxwh3zIwe1iMM0iR9Q-17" target="0Azxwh3zIwe1iMM0iR9Q-17" edge="1">
          <mxGeometry relative="1" as="geometry" />
        </mxCell>
        <mxCell id="mfMiC9CGdWcLCocoqDuJ-15" value="" style="edgeStyle=orthogonalEdgeStyle;rounded=0;orthogonalLoop=1;jettySize=auto;html=1;" parent="1" source="0Azxwh3zIwe1iMM0iR9Q-43" target="0Azxwh3zIwe1iMM0iR9Q-51" edge="1">
          <mxGeometry relative="1" as="geometry" />
        </mxCell>
        <mxCell id="0Azxwh3zIwe1iMM0iR9Q-43" value="&lt;font style=&quot;font-size: 18px&quot;&gt;DirectPaymentActivity&lt;br&gt;&lt;/font&gt;" style="rounded=0;whiteSpace=wrap;html=1;" parent="1" vertex="1">
          <mxGeometry x="312.5" y="1330" width="190" height="60" as="geometry" />
        </mxCell>
        <mxCell id="0Azxwh3zIwe1iMM0iR9Q-48" value="&lt;span style=&quot;font-size: 18px&quot;&gt;결제 타입 / &lt;br&gt;수기 결제&lt;/span&gt;" style="text;html=1;strokeColor=none;fillColor=none;align=center;verticalAlign=middle;whiteSpace=wrap;rounded=0;" parent="1" vertex="1">
          <mxGeometry x="340" y="1410" width="140" height="40" as="geometry" />
        </mxCell>
        <mxCell id="0Azxwh3zIwe1iMM0iR9Q-49" value="&lt;span style=&quot;font-size: 18px&quot;&gt;결제 정보 전송 /&lt;br&gt;승인 요청&lt;br&gt;&lt;/span&gt;" style="text;html=1;strokeColor=none;fillColor=none;align=center;verticalAlign=middle;whiteSpace=wrap;rounded=0;" parent="1" vertex="1">
          <mxGeometry x="317.5" y="1280" width="180" height="40" as="geometry" />
        </mxCell>
        <mxCell id="mfMiC9CGdWcLCocoqDuJ-19" value="" style="edgeStyle=orthogonalEdgeStyle;rounded=0;orthogonalLoop=1;jettySize=auto;html=1;" parent="1" source="0Azxwh3zIwe1iMM0iR9Q-50" target="mfMiC9CGdWcLCocoqDuJ-11" edge="1">
          <mxGeometry relative="1" as="geometry" />
        </mxCell>
        <mxCell id="0Azxwh3zIwe1iMM0iR9Q-50" value="&lt;font style=&quot;font-size: 18px&quot;&gt;sendDirectPayment()&lt;br&gt;&lt;/font&gt;" style="rounded=0;whiteSpace=wrap;html=1;" parent="1" vertex="1">
          <mxGeometry x="600" y="890" width="190" height="60" as="geometry" />
        </mxCell>
        <mxCell id="0Azxwh3zIwe1iMM0iR9Q-51" value="&lt;font style=&quot;font-size: 18px&quot;&gt;PaymentCompleteActivity&lt;br&gt;&lt;/font&gt;" style="rounded=0;whiteSpace=wrap;html=1;" parent="1" vertex="1">
          <mxGeometry x="585" y="1330" width="215" height="60" as="geometry" />
        </mxCell>
        <mxCell id="mfMiC9CGdWcLCocoqDuJ-1" value="&lt;span style=&quot;font-size: 18px&quot;&gt;결제 완료&lt;/span&gt;" style="text;html=1;strokeColor=none;fillColor=none;align=center;verticalAlign=middle;whiteSpace=wrap;rounded=0;" parent="1" vertex="1">
          <mxGeometry x="620" y="1280" width="140" height="40" as="geometry" />
        </mxCell>
        <mxCell id="mfMiC9CGdWcLCocoqDuJ-10" value="" style="endArrow=classic;html=1;entryX=0;entryY=0.5;entryDx=0;entryDy=0;" parent="1" target="0Azxwh3zIwe1iMM0iR9Q-43" edge="1">
          <mxGeometry width="50" height="50" relative="1" as="geometry">
            <mxPoint x="190" y="1170" as="sourcePoint" />
            <mxPoint x="218" y="1356" as="targetPoint" />
            <Array as="points">
              <mxPoint x="190" y="1360" />
            </Array>
          </mxGeometry>
        </mxCell>
        <mxCell id="mfMiC9CGdWcLCocoqDuJ-11" value="&lt;font style=&quot;font-size: 18px&quot;&gt;PaymentCompleteActivity&lt;br&gt;&lt;/font&gt;" style="rounded=0;whiteSpace=wrap;html=1;" parent="1" vertex="1">
          <mxGeometry x="835" y="890" width="215" height="60" as="geometry" />
        </mxCell>
        <mxCell id="mfMiC9CGdWcLCocoqDuJ-12" value="&lt;span style=&quot;font-size: 18px&quot;&gt;결제 완료&lt;/span&gt;" style="text;html=1;strokeColor=none;fillColor=none;align=center;verticalAlign=middle;whiteSpace=wrap;rounded=0;" parent="1" vertex="1">
          <mxGeometry x="537.5" y="770" width="140" height="40" as="geometry" />
        </mxCell>
        <mxCell id="_oCK_EuCVV7ImGEAHK8A-21" value="" style="edgeStyle=orthogonalEdgeStyle;rounded=0;orthogonalLoop=1;jettySize=auto;html=1;" edge="1" parent="1" source="mfMiC9CGdWcLCocoqDuJ-22" target="_oCK_EuCVV7ImGEAHK8A-7">
          <mxGeometry relative="1" as="geometry" />
        </mxCell>
        <mxCell id="mfMiC9CGdWcLCocoqDuJ-22" value="&lt;font style=&quot;font-size: 18px&quot;&gt;HistoryActivity&lt;br&gt;&lt;/font&gt;" style="rounded=0;whiteSpace=wrap;html=1;" parent="1" vertex="1">
          <mxGeometry x="40" y="1900" width="215" height="60" as="geometry" />
        </mxCell>
        <mxCell id="mfMiC9CGdWcLCocoqDuJ-23" value="&lt;span style=&quot;font-size: 18px&quot;&gt;결제 완료 화면 취소&lt;/span&gt;" style="text;html=1;strokeColor=none;fillColor=none;align=center;verticalAlign=middle;whiteSpace=wrap;rounded=0;" parent="1" vertex="1">
          <mxGeometry x="50" y="1670" width="190" height="40" as="geometry" />
        </mxCell>
        <mxCell id="mfMiC9CGdWcLCocoqDuJ-24" value="&lt;span style=&quot;font-size: 18px&quot;&gt;거래내역 화면 취소&lt;/span&gt;" style="text;html=1;strokeColor=none;fillColor=none;align=center;verticalAlign=middle;whiteSpace=wrap;rounded=0;" parent="1" vertex="1">
          <mxGeometry x="50" y="1850" width="190" height="40" as="geometry" />
        </mxCell>
        <mxCell id="mfMiC9CGdWcLCocoqDuJ-27" value="" style="endArrow=classic;html=1;entryX=0;entryY=0.5;entryDx=0;entryDy=0;" parent="1" target="Q_B2u1Nn1Y0NjtZ0O8QM-4" edge="1">
          <mxGeometry width="50" height="50" relative="1" as="geometry">
            <mxPoint x="338.75" y="620" as="sourcePoint" />
            <mxPoint x="366.25" y="810" as="targetPoint" />
            <Array as="points">
              <mxPoint x="339" y="920" />
            </Array>
          </mxGeometry>
        </mxCell>
        <mxCell id="mfMiC9CGdWcLCocoqDuJ-35" value="" style="edgeStyle=orthogonalEdgeStyle;rounded=0;orthogonalLoop=1;jettySize=auto;html=1;" parent="1" source="mfMiC9CGdWcLCocoqDuJ-29" target="mfMiC9CGdWcLCocoqDuJ-30" edge="1">
          <mxGeometry relative="1" as="geometry" />
        </mxCell>
        <mxCell id="mfMiC9CGdWcLCocoqDuJ-29" value="&lt;font style=&quot;font-size: 18px&quot;&gt;MainActivity&lt;/font&gt;" style="rounded=0;whiteSpace=wrap;html=1;" parent="1" vertex="1">
          <mxGeometry x="785" y="1720" width="120" height="60" as="geometry" />
        </mxCell>
        <mxCell id="mfMiC9CGdWcLCocoqDuJ-30" value="&lt;font style=&quot;font-size: 18px&quot;&gt;PaymentCompleteActivity&lt;br&gt;&lt;/font&gt;" style="rounded=0;whiteSpace=wrap;html=1;" parent="1" vertex="1">
          <mxGeometry x="965" y="1720" width="215" height="60" as="geometry" />
        </mxCell>
        <mxCell id="mfMiC9CGdWcLCocoqDuJ-31" value="&lt;span style=&quot;font-size: 18px&quot;&gt;취소 완료&lt;/span&gt;" style="text;html=1;strokeColor=none;fillColor=none;align=center;verticalAlign=middle;whiteSpace=wrap;rounded=0;" parent="1" vertex="1">
          <mxGeometry x="995" y="1670" width="140" height="40" as="geometry" />
        </mxCell>
        <mxCell id="mfMiC9CGdWcLCocoqDuJ-36" value="&lt;span style=&quot;font-size: 18px&quot;&gt;결제 완료&lt;/span&gt;" style="text;html=1;strokeColor=none;fillColor=none;align=center;verticalAlign=middle;whiteSpace=wrap;rounded=0;" parent="1" vertex="1">
          <mxGeometry x="870" y="840" width="140" height="40" as="geometry" />
        </mxCell>
        <mxCell id="mfMiC9CGdWcLCocoqDuJ-37" value="&lt;span style=&quot;font-size: 18px&quot;&gt;결제 요청&lt;/span&gt;" style="text;html=1;strokeColor=none;fillColor=none;align=center;verticalAlign=middle;whiteSpace=wrap;rounded=0;" parent="1" vertex="1">
          <mxGeometry x="620" y="840" width="140" height="40" as="geometry" />
        </mxCell>
        <mxCell id="mfMiC9CGdWcLCocoqDuJ-39" value="&lt;span style=&quot;font-size: 18px&quot;&gt;타사 앱 호출&lt;br&gt;&lt;/span&gt;&lt;span style=&quot;font-size: 18px&quot;&gt;카드인식&lt;/span&gt;&lt;span style=&quot;font-size: 18px&quot;&gt;&lt;br&gt;결제승인&lt;br&gt;&lt;/span&gt;" style="text;html=1;strokeColor=none;fillColor=none;align=center;verticalAlign=middle;whiteSpace=wrap;rounded=0;" parent="1" vertex="1">
          <mxGeometry x="575" y="1080" width="140" height="40" as="geometry" />
        </mxCell>
        <mxCell id="_oCK_EuCVV7ImGEAHK8A-2" value="&lt;span style=&quot;font-size: 18px&quot;&gt;&amp;lt; 상세 &amp;gt;&amp;nbsp;&lt;/span&gt;" style="text;html=1;strokeColor=none;fillColor=none;align=center;verticalAlign=middle;whiteSpace=wrap;rounded=0;" vertex="1" parent="1">
          <mxGeometry x="40" y="520" width="140" height="40" as="geometry" />
        </mxCell>
        <mxCell id="_oCK_EuCVV7ImGEAHK8A-3" value="&lt;span style=&quot;font-size: 18px&quot;&gt;&amp;lt; 클래스 &amp;gt;&amp;nbsp;&lt;/span&gt;" style="text;html=1;strokeColor=none;fillColor=none;align=center;verticalAlign=middle;whiteSpace=wrap;rounded=0;" vertex="1" parent="1">
          <mxGeometry x="40" y="1030" width="140" height="40" as="geometry" />
        </mxCell>
        <mxCell id="_oCK_EuCVV7ImGEAHK8A-4" value="&lt;span style=&quot;font-size: 18px&quot;&gt;승인 요청&lt;/span&gt;" style="text;html=1;strokeColor=none;fillColor=none;align=center;verticalAlign=middle;whiteSpace=wrap;rounded=0;" vertex="1" parent="1">
          <mxGeometry x="360" y="1670" width="140" height="40" as="geometry" />
        </mxCell>
        <mxCell id="_oCK_EuCVV7ImGEAHK8A-5" value="&lt;span style=&quot;font-size: 18px&quot;&gt;응답&lt;/span&gt;" style="text;html=1;strokeColor=none;fillColor=none;align=center;verticalAlign=middle;whiteSpace=wrap;rounded=0;" vertex="1" parent="1">
          <mxGeometry x="775" y="1670" width="140" height="40" as="geometry" />
        </mxCell>
        <mxCell id="_oCK_EuCVV7ImGEAHK8A-6" value="&lt;span style=&quot;font-size: 18px&quot;&gt;응답&lt;/span&gt;" style="text;html=1;strokeColor=none;fillColor=none;align=center;verticalAlign=middle;whiteSpace=wrap;rounded=0;" vertex="1" parent="1">
          <mxGeometry x="1070" y="100" width="140" height="40" as="geometry" />
        </mxCell>
        <mxCell id="_oCK_EuCVV7ImGEAHK8A-22" value="" style="edgeStyle=orthogonalEdgeStyle;rounded=0;orthogonalLoop=1;jettySize=auto;html=1;" edge="1" parent="1" source="_oCK_EuCVV7ImGEAHK8A-7" target="_oCK_EuCVV7ImGEAHK8A-8">
          <mxGeometry relative="1" as="geometry" />
        </mxCell>
        <mxCell id="_oCK_EuCVV7ImGEAHK8A-7" value="&lt;font style=&quot;font-size: 18px&quot;&gt;HistoryDetailActivity&lt;br&gt;&lt;/font&gt;" style="rounded=0;whiteSpace=wrap;html=1;" vertex="1" parent="1">
          <mxGeometry x="310" y="1900" width="215" height="60" as="geometry" />
        </mxCell>
        <mxCell id="_oCK_EuCVV7ImGEAHK8A-23" value="" style="edgeStyle=orthogonalEdgeStyle;rounded=0;orthogonalLoop=1;jettySize=auto;html=1;" edge="1" parent="1" source="_oCK_EuCVV7ImGEAHK8A-8" target="_oCK_EuCVV7ImGEAHK8A-11">
          <mxGeometry relative="1" as="geometry" />
        </mxCell>
        <mxCell id="_oCK_EuCVV7ImGEAHK8A-8" value="&lt;font style=&quot;font-size: 18px&quot;&gt;sendTrxCheck()&lt;br&gt;&lt;/font&gt;" style="rounded=0;whiteSpace=wrap;html=1;" vertex="1" parent="1">
          <mxGeometry x="587.5" y="1900" width="215" height="60" as="geometry" />
        </mxCell>
        <mxCell id="_oCK_EuCVV7ImGEAHK8A-9" value="&lt;span style=&quot;font-size: 18px&quot;&gt;수기결제 체크&lt;/span&gt;" style="text;html=1;strokeColor=none;fillColor=none;align=center;verticalAlign=middle;whiteSpace=wrap;rounded=0;" vertex="1" parent="1">
          <mxGeometry x="625" y="1970" width="140" height="40" as="geometry" />
        </mxCell>
        <mxCell id="_oCK_EuCVV7ImGEAHK8A-10" value="&lt;span style=&quot;font-size: 18px&quot;&gt;거래 상세 내역&lt;br&gt;취소 요청&lt;br&gt;&lt;/span&gt;" style="text;html=1;strokeColor=none;fillColor=none;align=center;verticalAlign=middle;whiteSpace=wrap;rounded=0;" vertex="1" parent="1">
          <mxGeometry x="322.5" y="1980" width="190" height="40" as="geometry" />
        </mxCell>
        <mxCell id="_oCK_EuCVV7ImGEAHK8A-24" value="" style="edgeStyle=orthogonalEdgeStyle;rounded=0;orthogonalLoop=1;jettySize=auto;html=1;" edge="1" parent="1" source="_oCK_EuCVV7ImGEAHK8A-11" target="_oCK_EuCVV7ImGEAHK8A-14">
          <mxGeometry relative="1" as="geometry" />
        </mxCell>
        <mxCell id="_oCK_EuCVV7ImGEAHK8A-11" value="&lt;font style=&quot;font-size: 18px&quot;&gt;sendCheckApproveRefund()&lt;br&gt;&lt;/font&gt;" style="rounded=0;whiteSpace=wrap;html=1;" vertex="1" parent="1">
          <mxGeometry x="855" y="1900" width="235" height="60" as="geometry" />
        </mxCell>
        <mxCell id="_oCK_EuCVV7ImGEAHK8A-12" value="&lt;span style=&quot;font-size: 18px&quot;&gt;취소 승인&lt;/span&gt;" style="text;html=1;strokeColor=none;fillColor=none;align=center;verticalAlign=middle;whiteSpace=wrap;rounded=0;" vertex="1" parent="1">
          <mxGeometry x="900" y="1970" width="140" height="40" as="geometry" />
        </mxCell>
        <mxCell id="_oCK_EuCVV7ImGEAHK8A-13" value="" style="edgeStyle=orthogonalEdgeStyle;rounded=0;orthogonalLoop=1;jettySize=auto;html=1;entryX=1;entryY=0.5;entryDx=0;entryDy=0;" edge="1" parent="1" source="_oCK_EuCVV7ImGEAHK8A-14" target="_oCK_EuCVV7ImGEAHK8A-17">
          <mxGeometry relative="1" as="geometry">
            <mxPoint x="1130" y="2100" as="targetPoint" />
            <Array as="points">
              <mxPoint x="1230" y="2110" />
            </Array>
          </mxGeometry>
        </mxCell>
        <mxCell id="_oCK_EuCVV7ImGEAHK8A-14" value="&lt;font style=&quot;font-size: 18px&quot;&gt;SchipQ2&lt;/font&gt;" style="rounded=0;whiteSpace=wrap;html=1;" vertex="1" parent="1">
          <mxGeometry x="1170" y="1900" width="120" height="60" as="geometry" />
        </mxCell>
        <mxCell id="_oCK_EuCVV7ImGEAHK8A-15" value="&lt;span style=&quot;font-size: 18px&quot;&gt;타사 앱 호출&lt;br&gt;카드인식&lt;br&gt;취소승인&lt;br&gt;&lt;/span&gt;" style="text;html=1;strokeColor=none;fillColor=none;align=center;verticalAlign=middle;whiteSpace=wrap;rounded=0;" vertex="1" parent="1">
          <mxGeometry x="1150" y="1840" width="140" height="40" as="geometry" />
        </mxCell>
        <mxCell id="_oCK_EuCVV7ImGEAHK8A-16" value="" style="edgeStyle=orthogonalEdgeStyle;rounded=0;orthogonalLoop=1;jettySize=auto;html=1;" edge="1" parent="1" source="_oCK_EuCVV7ImGEAHK8A-17" target="_oCK_EuCVV7ImGEAHK8A-18">
          <mxGeometry relative="1" as="geometry" />
        </mxCell>
        <mxCell id="_oCK_EuCVV7ImGEAHK8A-17" value="&lt;font style=&quot;font-size: 18px&quot;&gt;MainActivity&lt;/font&gt;" style="rounded=0;whiteSpace=wrap;html=1;" vertex="1" parent="1">
          <mxGeometry x="970" y="2080" width="120" height="60" as="geometry" />
        </mxCell>
        <mxCell id="_oCK_EuCVV7ImGEAHK8A-18" value="&lt;font style=&quot;font-size: 18px&quot;&gt;PaymentCompleteActivity&lt;br&gt;&lt;/font&gt;" style="rounded=0;whiteSpace=wrap;html=1;" vertex="1" parent="1">
          <mxGeometry x="690" y="2080" width="215" height="60" as="geometry" />
        </mxCell>
        <mxCell id="_oCK_EuCVV7ImGEAHK8A-19" value="&lt;span style=&quot;font-size: 18px&quot;&gt;취소 완료&lt;/span&gt;" style="text;html=1;strokeColor=none;fillColor=none;align=center;verticalAlign=middle;whiteSpace=wrap;rounded=0;" vertex="1" parent="1">
          <mxGeometry x="735" y="2150" width="140" height="40" as="geometry" />
        </mxCell>
        <mxCell id="_oCK_EuCVV7ImGEAHK8A-20" value="&lt;span style=&quot;font-size: 18px&quot;&gt;응답&lt;/span&gt;" style="text;html=1;strokeColor=none;fillColor=none;align=center;verticalAlign=middle;whiteSpace=wrap;rounded=0;" vertex="1" parent="1">
          <mxGeometry x="960" y="2150" width="140" height="40" as="geometry" />
        </mxCell>
      </root>
    </mxGraphModel>
  </diagram>
</mxfile>
